<?xml version="1.0" standalone="no"?>
<!DOCTYPE svg PUBLIC "-//W3C//DTD SVG 20010904//EN"
 "http://www.w3.org/TR/2001/REC-SVG-20010904/DTD/svg10.dtd">
<svg version="1.0" xmlns="http://www.w3.org/2000/svg"
 width="64.000000pt" height="64.000000pt" viewBox="0 0 64.000000 64.000000"
 preserveAspectRatio="xMidYMid meet">
<metadata>
Created by potrace 1.16, written by Peter Selinger 2001-2019
</metadata>
<g transform="translate(0.000000,64.000000) scale(0.100000,-0.100000)"
fill="#000000" stroke="none">
<path d="M1 523 c0 -101 2 -114 12 -88 34 85 93 151 167 184 l45 21 -112 0
-113 0 1 -117z"/>
<path d="M455 616 c67 -31 140 -106 164 -170 l20 -51 0 123 1 122 -117 0 -118
0 50 -24z"/>
<path d="M630 225 c0 -26 -40 -98 -74 -133 -31 -33 -88 -68 -136 -83 -15 -4
25 -8 98 -8 l122 -1 0 120 c0 66 -2 120 -5 120 -3 0 -5 -7 -5 -15z"/>
<path d="M1 118 l-1 -118 113 0 112 0 -50 25 c-77 37 -132 96 -159 171 -14 38
-15 35 -15 -78z"/>
</g>
</svg>
